
<svg xmlns="http://www.w3.org/2000/svg" width="10.103" height="20" viewBox="0 0 10.103 20">
  <defs>
    <style>
      .cls-1 {
        fill: #385c8e;
      }
    </style>
  </defs>
  <path id="facebook" class="cls-1" d="M127,10.652H129.2v9.025a.323.323,0,0,0,.323.323h3.717a.323.323,0,0,0,.323-.323V10.695h2.52a.323.323,0,0,0,.32-.286l.383-3.323a.322.322,0,0,0-.32-.359h-2.9V4.644c0-.628.338-.946,1-.946h1.9a.323.323,0,0,0,.323-.323V.325A.323.323,0,0,0,136.462,0h-2.616c-.018,0-.059,0-.12,0a5.013,5.013,0,0,0-3.278,1.236,3.437,3.437,0,0,0-1.143,3.055V6.727H127a.323.323,0,0,0-.323.323v3.28A.323.323,0,0,0,127,10.652Z" transform="translate(-126.682)"/>
</svg>
